inDegrees=no
num_controls=7
num_derivatives=13
num_iterations=273
num_multipliers=7
num_parameters=0
num_slacks=7
num_states=26
objective=1.468245
objective_accelerations=0.018208
objective_balance=0.002937
objective_effort=0.030333
objective_height=0.409294
objective_ligament=1.007473
solver_duration=3032.678190
status=Solve_Succeeded
success=true
DataType=double
version=3
OpenSimVersion=4.5
endheader
time	/jointset/ground_pelvis/pelvis_tilt/value	/jointset/ground_pelvis/pelvis_tx/value	/jointset/ground_pelvis/pelvis_ty/value	/jointset/hip_r/hip_flexion_r/value	/jointset/hip_r/hip_adduction_r/value	/jointset/hip_r/hip_rotation_r/value	/jointset/back/lumbar_extension/value	/jointset/patellofemoral_r/patellar_flexion_r/value	/jointset/knee_r/knee_flexion_r/value	/jointset/knee_r/knee_adduction_r/value	/jointset/knee_r/knee_rotation_r/value	/jointset/ankle_r/ankle_angle_r/value	/jointset/subtalar_r/subtalar_angle_r/value	/jointset/ground_pelvis/pelvis_tilt/speed	/jointset/ground_pelvis/pelvis_tx/speed	/jointset/ground_pelvis/pelvis_ty/speed	/jointset/hip_r/hip_flexion_r/speed	/jointset/hip_r/hip_adduction_r/speed	/jointset/hip_r/hip_rotation_r/speed	/jointset/back/lumbar_extension/speed	/jointset/patellofemoral_r/patellar_flexion_r/speed	/jointset/knee_r/knee_flexion_r/speed	/jointset/knee_r/knee_adduction_r/speed	/jointset/knee_r/knee_rotation_r/speed	/jointset/ankle_r/ankle_angle_r/speed	/jointset/subtalar_r/subtalar_angle_r/speed	/forceset/tau_hip_flexion_r	/forceset/tau_hip_adduction_r	/forceset/tau_hip_rotation_r	/forceset/tau_knee_flexion_r	/forceset/tau_ankle_angle_r	/forceset/tau_subtalar_angle_r	/forceset/tau_lumbar_extension	lambda_cid13_p0	lambda_cid14_p0	lambda_cid14_p1	lambda_cid14_p2	lambda_cid14_p3	lambda_cid14_p4	lambda_cid14_p5	/jointset/ground_pelvis/pelvis_tilt/accel	/jointset/ground_pelvis/pelvis_tx/accel	/jointset/ground_pelvis/pelvis_ty/accel	/jointset/hip_r/hip_flexion_r/accel	/jointset/hip_r/hip_adduction_r/accel	/jointset/hip_r/hip_rotation_r/accel	/jointset/back/lumbar_extension/accel	/jointset/patellofemoral_r/patellar_flexion_r/accel	/jointset/knee_r/knee_flexion_r/accel	/jointset/knee_r/knee_adduction_r/accel	/jointset/knee_r/knee_rotation_r/accel	/jointset/ankle_r/ankle_angle_r/accel	/jointset/subtalar_r/subtalar_angle_r/accel	gamma_cid13_p0	gamma_cid14_p0	gamma_cid14_p1	gamma_cid14_p2	gamma_cid14_p3	gamma_cid14_p4	gamma_cid14_p5
1	-0.3765910296506867	-0.0813630866299257	0.805201538616468	1.137218018714202	-0.2042445487489956	-0.1603921826682558	-0.7853932750129514	0.6854313182775599	0.6854313182775703	-0.02187751266730865	0.17452382380823	3.513196682827639e-05	0.06543202337439716	0.08195380813439412	0.003767740172954708	0.01485671450138734	-0.1059144016028305	0.001681066824521759	-0.005582692201547584	0.0004472897959291996	-0.02209537673692454	-0.02209537673693191	-5.245745332743381e-05	7.000907120215065e-06	0.002021718749000269	0.002615767887368846	-0.3868518011982775	0.01072607703944907	0.007857513719773342	-0.1617706839752649	0.09422396760659986	-0.001499495649391302	0.3715986146999604	-21.99672857953462	-17.44970277716721	-1.09360496500498	-2.388324873074795	-0.1341054768068482	-712.6955238055774	61.30960204878545	2.363926569606153	0.4221300461059593	0.7208056298067133	-4.136244158905646	0.1325745754451626	-0.4248379418707826	-0.02062427666835302	-1.704798415074393	-1.704798415074419	-0.005301637887012173	-0.003653379792938325	0.07679796555593806	0.1822775349679786	1.072277783866974e-10	1.413495364202576e-09	3.344238617192533e-10	-1.113535906318932e-09	-2.83719418567589e-09	-3.093086414662893e-09	1.636182959554267e-10
1.01	-0.3756551647338116	-0.08130437797880355	0.8053858356444225	1.13595434932249	-0.2042210541681657	-0.1604693096543075	-0.7853876740791378	0.6851254139160182	0.6851254139160091	-0.02187852465115983	0.1745237553346815	5.910354301007745e-05	0.06546733544031831	0.1051208693943213	0.007973048454464903	0.0219862393463108	-0.1467034203421959	0.003017276519874636	-0.009840552905165655	0.0007902085498959307	-0.03906886568887352	-0.03906886568887357	-0.0001517738941640555	-1.929052536891969e-05	0.002771898078841104	0.004445781042907899	-0.3861742018013679	0.01051165479908143	0.007887704012194456	-0.1622134633802345	0.09482414524069863	-0.001549792476599364	0.3713091737736484	-22.01075790425114	-17.24288506004303	-1.088506968004357	-2.378548647077995	-0.273439203457074	-712.4368211685186	61.37108127469047	2.278349779970879	0.4195894338296635	0.706557471264826	-4.032822562681202	0.1340580006513925	-0.4259376702870777	0.07934668569311253	-1.691129650895297	-1.691129650894369	-0.01252185223423462	-0.001906689314703662	0.07402344854601167	0.1832333740970273	-8.141297006790639e-12	1.205167632911038e-09	5.116591342345855e-10	-2.017472445599243e-09	-2.727704731288201e-09	-3.391729553411601e-09	1.190777734964375e-10
1.02	-0.3744905784291874	-0.08120364460193581	0.8056409342327131	1.134286271377124	-0.2041842147236065	-0.1605889507544922	-0.7853751246108208	0.6846502735618212	0.6846502735618132	-0.0218805848404699	0.1745234660139744	9.055601874602491e-05	0.0655209216714432	0.1276980856856512	0.01217268532206991	0.02901702656864694	-0.1867961123307364	0.004350039578088548	-0.0140855150359848	0.001836996674446861	-0.05594257526643063	-0.05594257526642371	-0.0002620985370801818	-3.716853136974762e-05	0.003517898682592933	0.006270600928453387	-0.3854966024044686	0.01029723255871476	0.007917894304660934	-0.1626562427851795	0.09542432287481223	-0.001600089303803686	0.371019732847317	-22.03253056305193	-17.04361760957933	-1.083584088259548	-2.37005449799012	-0.4253744267311401	-712.3041945168169	61.44670974341596	2.245957575886774	0.420995763324753	0.7010581052891999	-3.996978808740536	0.1318852480173391	-0.4222582273110219	0.1201495974479413	-1.684842540196016	-1.684842540196112	-0.00750327830286445	-0.00197069449521997	0.07596222033788819	0.1812388809691601	9.460451022874162e-11	1.548650581029542e-09	1.314315807228752e-09	-3.109778600701286e-09	-3.428942900455129e-09	-7.110818854222641e-09	1.168411838558477e-09
1.03	-0.3731025421238742	-0.08106075451643276	0.8059659474744741	1.132219918987817	-0.2041340652786265	-0.160750979909258	-0.7853482204578481	0.6840070488901355	0.6840070488901169	-0.02188384826309282	0.174523050828907	0.0001298295314682485	0.06559283990786326	0.1498715709671811	0.01642332477271391	0.03597898896068084	-0.2264392027195095	0.005679208011282895	-0.01831828138183485	0.003700642367877739	-0.07267034269616389	-0.07267034269615408	-0.0003967689834085274	-4.351842818922716e-05	0.004374247626075704	0.008123118718126094	-0.3857245984609357	0.01026386635189964	0.007912134725792204	-0.1626782969720339	0.09581651386328617	-0.001605094668220592	0.3716989748260431	-22.06197376692999	-16.93431421661303	-1.070151577373328	-2.368161749502662	-0.7504637548441748	-712.7151044306776	61.5101244909776	2.197402908638294	0.4297961522157469	0.6927681867943934	-3.942700351553746	0.1333358858791372	-0.4234814274319986	0.242993321415175	-1.661941428796095	-1.661941428795779	-0.01737632989592663	0.0003844786543024481	0.09608831641112296	0.1887688614193005	1.995759795319182e-10	1.89776425036652e-09	2.123354331248217e-09	-4.204006894740287e-09	-4.138453800474661e-09	-1.086481066689148e-08	2.228907889207471e-09
1.04	-0.3714938991848864	-0.08087481841316764	0.8063603809162836	1.129758190455081	-0.2040706435003855	-0.1609552758452724	-0.7852979755946762	0.6831975070272586	0.6831975070272466	-0.02188864387064954	0.1745226424680948	0.0001787899505896147	0.0656835854488684	0.1718194124228097	0.02078188887447669	0.04290106657831982	-0.2658713410126063	0.007004506240852288	-0.02253887129609814	0.006505138706323929	-0.0892060135032629	-0.08920601350324966	-0.000568535513647071	-3.580368782452325e-05	0.005455279971859954	0.01003606184591808	-0.3859525945174133	0.01023050014508289	0.007906375146942578	-0.1627003511588681	0.09620870485177313	-0.001610100032636144	0.3723782168047506	-22.09899495837158	-16.83245467321627	-1.056900278010397	-2.367521862211186	-1.08948782580578	-713.2513043130367	61.58756978635559	2.200828810706683	0.442580693548206	0.6930811504101393	-3.954788389605063	0.1311112072923165	-0.4198229409937005	0.3083197264508498	-1.646423215669223	-1.646423215669217	-0.01492249508483896	0.0008422329416765068	0.1208989007977159	0.1933239485928482	2.198441462180673e-10	1.825720225158934e-09	2.290164012612341e-09	-5.070062779828748e-09	-4.090015703337471e-09	-1.313553652135813e-08	2.306467016282035e-09
1.05	-0.3696670477143461	-0.08064474910669128	0.8068238325522242	1.126903259847031	-0.203993978018045	-0.1612017262357776	-0.7852148774083261	0.6822234357819558	0.6822234357819389	-0.02189532259729968	0.1745223671497475	0.0002396236663482011	0.06579375743792086	0.1934977947232643	0.02525088046988925	0.04978208084606579	-0.3050715978104145	0.008329038521411836	-0.02674992865277683	0.0102838962672232	-0.1055890698784614	-0.1055890698784612	-0.0007715965946555388	-1.856237388344749e-05	0.006743136327831798	0.01200807822677473	-0.3858737428595214	0.01014810963376957	0.007906873783551684	-0.1628624781642236	0.09677488130108482	-0.001649865871260917	0.3728948907618088	-22.14349574694281	-16.66776658998268	-1.049900683408656	-2.363422567751887	-1.454377405661941	-713.6403865644785	61.66944057212259	2.14337938187762	0.4518937961085027	0.6845315057099918	-3.896167698172226	0.1331907887679467	-0.4215564771820289	0.4380634261603785	-1.63137204440468	-1.631372044406808	-0.02365589193682415	0.002268472974310832	0.1374805515642022	0.200601442156988	2.374653346974348e-10	1.740515021996834e-09	2.436904042643489e-09	-5.928988277137506e-09	-4.017891700039138e-09	-1.535991031463097e-08	2.353309364494902e-09
